<svg width="43" height="49" viewBox="0 0 43 49" fill="none" xmlns="http://www.w3.org/2000/svg">
<path d="M21.3911 34.4355L23.1693 30.4355V20.1515C26.2296 19.2575 28.5039 16.1515 28.5039 12.4355C28.5039 8.02355 25.3138 4.43555 21.3911 4.43555C17.4684 4.43555 14.2783 8.02355 14.2783 12.4355C14.2783 16.1515 16.5526 19.2575 19.6129 20.1515V30.4355L21.3911 34.4355Z" fill="#342E37"/>
<path d="M28.9789 21.5606L28.0311 25.4166C32.6384 26.8486 35.6169 29.6026 35.6169 32.4346C35.6169 36.2186 29.7755 40.4346 21.3913 40.4346C13.0071 40.4346 7.16577 36.2186 7.16577 32.4346C7.16577 29.6026 10.1442 26.8486 14.7533 25.4146L13.8056 21.5586C7.51607 23.5146 3.60938 27.6806 3.60938 32.4346C3.60938 39.1626 11.421 44.4346 21.3913 44.4346C31.3617 44.4346 39.1733 39.1626 39.1733 32.4346C39.1733 27.6806 35.2666 23.5146 28.9789 21.5606V21.5606Z" fill="#342E37"/>
</svg>
