<svg width="24" height="25" viewBox="0 0 24 25" fill="none" xmlns="http://www.w3.org/2000/svg">
<path d="M21.1119 0.435547H2.81487C2.15315 0.435547 1.51852 0.706465 1.05061 1.1887C0.582695 1.67094 0.319824 2.32499 0.319824 3.00698L0.319824 21.8641C0.319824 22.5461 0.582695 23.2002 1.05061 23.6824C1.51852 24.1646 2.15315 24.4355 2.81487 24.4355H9.94916V16.2761H6.6744V12.4355H9.94916V9.5084C9.94916 6.17894 11.8724 4.33983 14.8181 4.33983C16.2289 4.33983 17.7041 4.59912 17.7041 4.59912V7.86698H16.0787C14.4772 7.86698 13.9776 8.89126 13.9776 9.9418V12.4355H17.5528L16.981 16.2761H13.9776V24.4355H21.1119C21.7736 24.4355 22.4083 24.1646 22.8762 23.6824C23.3441 23.2002 23.607 22.5461 23.607 21.8641V3.00698C23.607 2.32499 23.3441 1.67094 22.8762 1.1887C22.4083 0.706465 21.7736 0.435547 21.1119 0.435547Z" fill="#484848"/>
</svg>
