<svg width="35" height="25" viewBox="0 0 35 25" fill="none" xmlns="http://www.w3.org/2000/svg">
<path d="M5.5 5.359C5.5 5.05607 5.62647 4.76554 5.8516 4.55134C6.07673 4.33714 6.38206 4.2168 6.70044 4.2168H28.3084C28.6267 4.2168 28.9321 4.33714 29.1572 4.55134C29.3823 4.76554 29.5088 5.05607 29.5088 5.359C29.5088 5.66193 29.3823 5.95245 29.1572 6.16666C28.9321 6.38086 28.6267 6.5012 28.3084 6.5012H6.70044C6.38206 6.5012 6.07673 6.38086 5.8516 6.16666C5.62647 5.95245 5.5 5.66193 5.5 5.359V5.359Z" fill="#484848"/>
<path d="M5.5 12.2477C5.5 11.9447 5.62647 11.6542 5.8516 11.44C6.07673 11.2258 6.38206 11.1055 6.70044 11.1055H28.3084C28.6267 11.1055 28.9321 11.2258 29.1572 11.44C29.3823 11.6542 29.5088 11.9447 29.5088 12.2477C29.5088 12.5506 29.3823 12.8411 29.1572 13.0553C28.9321 13.2695 28.6267 13.3899 28.3084 13.3899H6.70044C6.38206 13.3899 6.07673 13.2695 5.8516 13.0553C5.62647 12.8411 5.5 12.5506 5.5 12.2477Z" fill="#484848"/>
<path d="M6.70044 17.9961C6.38206 17.9961 6.07673 18.1164 5.8516 18.3306C5.62647 18.5448 5.5 18.8354 5.5 19.1383C5.5 19.4412 5.62647 19.7318 5.8516 19.946C6.07673 20.1602 6.38206 20.2805 6.70044 20.2805H28.3084C28.6267 20.2805 28.9321 20.1602 29.1572 19.946C29.3823 19.7318 29.5088 19.4412 29.5088 19.1383C29.5088 18.8354 29.3823 18.5448 29.1572 18.3306C28.9321 18.1164 28.6267 17.9961 28.3084 17.9961H6.70044Z" fill="#484848"/>
</svg>
