<svg width="30" height="26" viewBox="0 0 30 26" fill="none" xmlns="http://www.w3.org/2000/svg">
<path d="M26.1146 3.45033C25.4762 2.81158 24.7181 2.30489 23.8838 1.95918C23.0495 1.61348 22.1552 1.43555 21.2521 1.43555C20.349 1.43555 19.4547 1.61348 18.6204 1.95918C17.7861 2.30489 17.028 2.81158 16.3896 3.45033L15.0646 4.77533L13.7396 3.45033C12.45 2.16071 10.7009 1.43622 8.8771 1.43622C7.05331 1.43622 5.30422 2.16071 4.0146 3.45033C2.72499 4.73994 2.00049 6.48904 2.00049 8.31283C2.00049 10.1366 2.72499 11.8857 4.0146 13.1753L5.3396 14.5003L15.0646 24.2253L24.7896 14.5003L26.1146 13.1753C26.7533 12.5369 27.26 11.7788 27.6057 10.9445C27.9514 10.1102 28.1294 9.21594 28.1294 8.31283C28.1294 7.40972 27.9514 6.51546 27.6057 5.68113C27.26 4.84681 26.7533 4.08877 26.1146 3.45033V3.45033Z" stroke="#EAD49C" stroke-width="2.5" stroke-linecap="round" stroke-linejoin="round"/>
</svg>
