<svg width="30" height="26" viewBox="0 0 30 26" fill="none" xmlns="http://www.w3.org/2000/svg">
<path d="M26.2342 3.45033C25.5958 2.81158 24.8377 2.30489 24.0034 1.95918C23.1691 1.61348 22.2748 1.43555 21.3717 1.43555C20.4686 1.43555 19.5744 1.61348 18.74 1.95918C17.9057 2.30489 17.1477 2.81158 16.5092 3.45033L15.1842 4.77533L13.8592 3.45033C12.5696 2.16071 10.8205 1.43622 8.99673 1.43622C7.17294 1.43622 5.42385 2.16071 4.13423 3.45033C2.84462 4.73994 2.12012 6.48904 2.12012 8.31283C2.12012 10.1366 2.84462 11.8857 4.13423 13.1753L5.45923 14.5003L15.1842 24.2253L24.9092 14.5003L26.2342 13.1753C26.873 12.5369 27.3797 11.7788 27.7254 10.9445C28.0711 10.1102 28.249 9.21594 28.249 8.31283C28.249 7.40972 28.0711 6.51546 27.7254 5.68113C27.3797 4.84681 26.873 4.08877 26.2342 3.45033V3.45033Z" stroke="#EAD49C" stroke-width="2.5" stroke-linecap="round" stroke-linejoin="round"/>
</svg>
