<svg width="30" height="26" viewBox="0 0 30 26" fill="none" xmlns="http://www.w3.org/2000/svg">
<path d="M26.0277 3.45033C25.3892 2.81158 24.6312 2.30489 23.7969 1.95918C22.9626 1.61348 22.0683 1.43555 21.1652 1.43555C20.2621 1.43555 19.3678 1.61348 18.5335 1.95918C17.6992 2.30489 16.9411 2.81158 16.3027 3.45033L14.9777 4.77533L13.6527 3.45033C12.3631 2.16071 10.614 1.43622 8.79019 1.43622C6.9664 1.43622 5.2173 2.16071 3.92769 3.45033C2.63807 4.73994 1.91357 6.48904 1.91357 8.31283C1.91357 10.1366 2.63807 11.8857 3.92769 13.1753L5.25269 14.5003L14.9777 24.2253L24.7027 14.5003L26.0277 13.1753C26.6664 12.5369 27.1731 11.7788 27.5188 10.9445C27.8645 10.1102 28.0425 9.21594 28.0425 8.31283C28.0425 7.40972 27.8645 6.51546 27.5188 5.68113C27.1731 4.84681 26.6664 4.08877 26.0277 3.45033V3.45033Z" stroke="#EAD49C" stroke-width="2.5" stroke-linecap="round" stroke-linejoin="round"/>
</svg>
