<svg width="29" height="26" viewBox="0 0 29 26" fill="none" xmlns="http://www.w3.org/2000/svg">
<path d="M25.5277 3.45033C24.8892 2.81158 24.1312 2.30489 23.2969 1.95918C22.4626 1.61348 21.5683 1.43555 20.6652 1.43555C19.7621 1.43555 18.8678 1.61348 18.0335 1.95918C17.1992 2.30489 16.4411 2.81158 15.8027 3.45033L14.4777 4.77533L13.1527 3.45033C11.8631 2.16071 10.114 1.43622 8.29019 1.43622C6.4664 1.43622 4.7173 2.16071 3.42769 3.45033C2.13807 4.73994 1.41357 6.48904 1.41357 8.31283C1.41357 10.1366 2.13807 11.8857 3.42769 13.1753L4.75269 14.5003L14.4777 24.2253L24.2027 14.5003L25.5277 13.1753C26.1664 12.5369 26.6731 11.7788 27.0188 10.9445C27.3645 10.1102 27.5425 9.21594 27.5425 8.31283C27.5425 7.40972 27.3645 6.51546 27.0188 5.68113C26.6731 4.84681 26.1664 4.08877 25.5277 3.45033V3.45033Z" stroke="#EAD49C" stroke-width="2.5" stroke-linecap="round" stroke-linejoin="round"/>
</svg>
