<svg width="30" height="26" viewBox="0 0 30 26" fill="none" xmlns="http://www.w3.org/2000/svg">
<path d="M25.8211 3.45033C25.1827 2.81158 24.4247 2.30489 23.5903 1.95918C22.756 1.61348 21.8618 1.43555 20.9586 1.43555C20.0555 1.43555 19.1613 1.61348 18.327 1.95918C17.4926 2.30489 16.7346 2.81158 16.0961 3.45033L14.7711 4.77533L13.4461 3.45033C12.1565 2.16071 10.4074 1.43622 8.58364 1.43622C6.75985 1.43622 5.01076 2.16071 3.72114 3.45033C2.43153 4.73994 1.70703 6.48904 1.70703 8.31283C1.70703 10.1366 2.43153 11.8857 3.72114 13.1753L5.04614 14.5003L14.7711 24.2253L24.4961 14.5003L25.8211 13.1753C26.4599 12.5369 26.9666 11.7788 27.3123 10.9445C27.658 10.1102 27.8359 9.21594 27.8359 8.31283C27.8359 7.40972 27.658 6.51546 27.3123 5.68113C26.9666 4.84681 26.4599 4.08877 25.8211 3.45033V3.45033Z" stroke="#EAD49C" stroke-width="2.5" stroke-linecap="round" stroke-linejoin="round"/>
</svg>
