<svg width="29" height="26" viewBox="0 0 29 26" fill="none" xmlns="http://www.w3.org/2000/svg">
<path d="M25.6146 3.45033C24.9762 2.81158 24.2181 2.30489 23.3838 1.95918C22.5495 1.61348 21.6552 1.43555 20.7521 1.43555C19.849 1.43555 18.9547 1.61348 18.1204 1.95918C17.2861 2.30489 16.528 2.81158 15.8896 3.45033L14.5646 4.77533L13.2396 3.45033C11.95 2.16071 10.2009 1.43622 8.3771 1.43622C6.55331 1.43622 4.80422 2.16071 3.5146 3.45033C2.22499 4.73994 1.50049 6.48904 1.50049 8.31283C1.50049 10.1366 2.22499 11.8857 3.5146 13.1753L4.8396 14.5003L14.5646 24.2253L24.2896 14.5003L25.6146 13.1753C26.2533 12.5369 26.76 11.7788 27.1057 10.9445C27.4514 10.1102 27.6294 9.21594 27.6294 8.31283C27.6294 7.40972 27.4514 6.51546 27.1057 5.68113C26.76 4.84681 26.2533 4.08877 25.6146 3.45033V3.45033Z" stroke="#EAD49C" stroke-width="2.5" stroke-linecap="round" stroke-linejoin="round"/>
</svg>
