<svg width="24" height="25" viewBox="0 0 24 25" fill="none" xmlns="http://www.w3.org/2000/svg">
<path d="M12.0225 0.435547C8.85721 0.435547 8.46273 0.451299 7.22399 0.505306C5.98016 0.568313 5.13881 0.767088 4.39644 1.06413C3.61947 1.36643 2.91582 1.83973 2.33454 2.45105C1.73973 3.04872 1.28023 3.77431 0.988814 4.57606C0.7006 5.34116 0.507729 6.20827 0.446593 7.49018C0.390551 8.76759 0.378906 9.17339 0.378906 12.4355C0.378906 15.6977 0.39419 16.1043 0.446593 17.3809C0.507729 18.6591 0.7006 19.5299 0.988814 20.295C1.28214 21.0958 1.74138 21.821 2.33454 22.42C2.91446 23.0331 3.6185 23.5066 4.39644 23.807C5.13881 24.1003 5.9838 24.3028 7.22399 24.3658C8.46346 24.4235 8.85721 24.4355 12.0225 24.4355C15.1877 24.4355 15.5822 24.4198 16.8209 24.3658C18.0611 24.3028 18.9061 24.0995 19.6485 23.807C20.4255 23.5047 21.1291 23.0314 21.7104 22.42C22.306 21.823 22.7656 21.0972 23.0561 20.295C23.3407 19.5299 23.5372 18.6591 23.5983 17.3809C23.6544 16.1035 23.666 15.6977 23.666 12.4355C23.666 9.17339 23.6508 8.76684 23.5983 7.49018C23.5372 6.21202 23.34 5.33666 23.0561 4.57606C22.7628 3.77531 22.3036 3.05012 21.7104 2.45105C21.1311 1.83724 20.4269 1.36355 19.6485 1.06413C18.9061 0.767088 18.0611 0.568313 16.8209 0.505306C15.5815 0.447548 15.1877 0.435547 12.0225 0.435547ZM12.0225 2.59582C15.131 2.59582 15.5021 2.61157 16.7307 2.66558C17.8639 2.72033 18.4811 2.91536 18.8908 3.08038C19.3974 3.27309 19.8559 3.57983 20.2329 3.97824C20.6189 4.36516 20.9154 4.83661 21.1005 5.35766C21.2606 5.77996 21.4498 6.41604 21.503 7.58394C21.5554 8.8501 21.5707 9.2334 21.5707 12.4363C21.5707 15.6392 21.5554 16.0225 21.4986 17.2887C21.4375 18.4565 21.2482 19.0926 21.0888 19.5149C20.8683 20.0783 20.6223 20.4721 20.2162 20.8981C19.8379 21.294 19.3797 21.5993 18.8741 21.7922C18.4694 21.9572 17.8435 22.1523 16.706 22.207C15.4709 22.261 15.1069 22.2768 11.9904 22.2768C8.87395 22.2768 8.51077 22.261 7.27421 22.2025C6.14101 22.1395 5.51582 21.9445 5.10606 21.7802C4.55292 21.5529 4.17373 21.2994 3.76761 20.8809C3.35785 20.4585 3.09729 20.0565 2.89641 19.4977C2.73338 19.0806 2.54706 18.4355 2.48665 17.2632C2.44517 16.0052 2.42552 15.6152 2.42552 12.4183C2.42552 9.2229 2.44517 8.8321 2.48665 7.55844C2.54706 6.38604 2.73338 5.74246 2.89641 5.32391C3.09729 4.75309 3.35858 4.36304 3.76761 3.94073C4.173 3.52293 4.55292 3.2529 5.10606 3.04137C5.51582 2.8771 6.12572 2.68208 7.2633 2.62357C8.4984 2.57781 8.8623 2.56131 11.9744 2.56131L12.0225 2.59582ZM12.0225 6.27653C11.2374 6.27623 10.46 6.43538 9.73463 6.74487C9.00927 7.05436 8.3502 7.50813 7.79508 8.08024C7.23995 8.65236 6.79966 9.33161 6.49936 10.0792C6.19907 10.8267 6.04465 11.628 6.04494 12.437C6.04465 13.2461 6.19907 14.0474 6.49936 14.7949C6.79966 15.5425 7.23995 16.2217 7.79508 16.7939C8.3502 17.366 9.00927 17.8197 9.73463 18.1292C10.46 18.4387 11.2374 18.5979 12.0225 18.5976C12.8075 18.5979 13.585 18.4387 14.3103 18.1292C15.0357 17.8197 15.6947 17.366 16.2499 16.7939C16.805 16.2217 17.2453 15.5425 17.5456 14.7949C17.8459 14.0474 18.0003 13.2461 18 12.437C18.0003 11.628 17.8459 10.8267 17.5456 10.0792C17.2453 9.33161 16.805 8.65236 16.2499 8.08024C15.6947 7.50813 15.0357 7.05436 14.3103 6.74487C13.585 6.43538 12.8075 6.27623 12.0225 6.27653V6.27653ZM12.0225 16.4373C9.87688 16.4373 8.14104 14.6483 8.14104 12.437C8.14104 10.2258 9.87688 8.4368 12.0225 8.4368C14.1681 8.4368 15.9039 10.2258 15.9039 12.437C15.9039 14.6483 14.1681 16.4373 12.0225 16.4373ZM19.6383 6.0305C19.6379 6.41279 19.4903 6.77929 19.2279 7.04948C18.9654 7.31966 18.6097 7.47143 18.2387 7.47143C18.0553 7.47143 17.8737 7.43419 17.7042 7.36186C17.5348 7.28952 17.3808 7.18349 17.2511 7.04983C17.1214 6.91616 17.0186 6.75748 16.9484 6.58284C16.8782 6.4082 16.8421 6.22103 16.8421 6.032C16.8421 5.84297 16.8782 5.65579 16.9484 5.48115C17.0186 5.30651 17.1214 5.14783 17.2511 5.01417C17.3808 4.8805 17.5348 4.77447 17.7042 4.70214C17.8737 4.6298 18.0553 4.59257 18.2387 4.59257C19.008 4.59257 19.6383 5.23765 19.6383 6.0305V6.0305Z" fill="#484848"/>
</svg>
