<svg width="25" height="25" viewBox="0 0 25 25" fill="none" xmlns="http://www.w3.org/2000/svg">
<path fill-rule="evenodd" clip-rule="evenodd" d="M0.953125 2.44064C0.953125 1.90886 1.1581 1.39885 1.52296 1.02283C1.88782 0.6468 2.38267 0.43555 2.89866 0.43555H22.2926C22.5483 0.435119 22.8016 0.486673 23.0379 0.587259C23.2743 0.687845 23.4891 0.835487 23.67 1.02173C23.8509 1.20798 23.9944 1.42918 24.0922 1.67265C24.1901 1.91613 24.2404 2.1771 24.2403 2.44064V22.4283C24.2405 22.6919 24.1904 22.9529 24.0927 23.1965C23.9949 23.4401 23.8516 23.6614 23.6708 23.8479C23.49 24.0343 23.2753 24.1822 23.039 24.283C22.8027 24.3839 22.5494 24.4357 22.2937 24.4355H2.89866C2.64308 24.4355 2.39 24.3836 2.15389 24.2828C1.91778 24.182 1.70326 24.0342 1.52258 23.8479C1.34191 23.6616 1.19863 23.4404 1.10092 23.197C1.00321 22.9536 0.952986 22.6928 0.953125 22.4294V2.44064ZM10.1706 9.58609H13.3239V11.2181C13.779 10.2799 14.9434 9.43555 16.6931 9.43555C20.0475 9.43555 20.8424 11.3043 20.8424 14.733V21.0843H17.4478V15.5141C17.4478 13.5614 16.9927 12.4595 15.8368 12.4595C14.2331 12.4595 13.5663 13.6475 13.5663 15.5141V21.0843H10.1706V9.58609ZM4.34881 20.9348H7.7445V9.43555H4.34881V20.9337V20.9348ZM8.23035 5.685C8.23676 5.98465 8.18502 6.28259 8.07818 6.56135C7.97134 6.8401 7.81156 7.09406 7.6082 7.30831C7.40484 7.52256 7.162 7.69279 6.89394 7.80901C6.62588 7.92523 6.338 7.9851 6.04718 7.9851C5.75637 7.9851 5.46849 7.92523 5.20043 7.80901C4.93237 7.69279 4.68953 7.52256 4.48617 7.30831C4.28281 7.09406 4.12303 6.8401 4.01619 6.56135C3.90935 6.28259 3.85761 5.98465 3.86402 5.685C3.87658 5.09684 4.11211 4.53714 4.52017 4.12575C4.92822 3.71437 5.47636 3.484 6.04718 3.484C6.61801 3.484 7.16615 3.71437 7.5742 4.12575C7.98225 4.53714 8.21779 5.09684 8.23035 5.685V5.685Z" fill="#484848"/>
</svg>
