<svg width="133" height="152" viewBox="0 0 133 152" fill="none" xmlns="http://www.w3.org/2000/svg">
<g clip-path="url(#clip0_523_2643)">
<path d="M132.872 63.6465C132.872 63.6465 98.6843 42.8476 62.2787 60.6072C62.2787 60.6072 92.3565 46.0931 113.648 73.2194C109.857 94.8403 88.9239 105.979 62.2787 105.979C28.9572 105.979 10.0342 96.2823 9.94376 63.6886H0.304888C0.234357 72.2514 1.89675 80.7431 5.19618 88.6739C8.49561 96.6048 13.3668 103.818 19.5288 109.897C25.6908 115.977 33.0216 120.802 41.0985 124.095C49.1754 127.387 57.8385 129.083 66.5882 129.083C75.3379 129.083 84.0011 127.387 92.078 124.095C100.155 120.802 107.486 115.977 113.648 109.897C119.81 103.818 124.681 96.6048 127.98 88.6739C131.28 80.7431 132.942 72.2514 132.872 63.6886H132.85L132.872 63.6465Z" fill="#342E37"/>
<path d="M105.348 82.2836C107.997 76.7232 105.428 70.1632 99.6079 67.6315C93.7881 65.0998 86.9222 67.5551 84.2724 73.1155C81.6227 78.676 84.1925 85.2359 90.0122 87.7676C95.832 90.2993 102.698 87.8441 105.348 82.2836Z" fill="#342E37"/>
<path d="M48.9063 53.6488C51.5561 48.0884 48.9863 41.5284 43.1665 38.9967C37.3467 36.465 30.4808 38.9203 27.831 44.4807C25.1813 50.0412 27.7511 56.6012 33.5708 59.1329C39.3906 61.6646 46.2565 59.2093 48.9063 53.6488Z" fill="#908DB9"/>
<path d="M132.805 63.3293H132.891C132.75 46.621 125.705 30.643 113.289 18.8758C100.873 7.10863 84.0938 0.505859 66.6058 0.505859C49.1178 0.505859 32.3383 7.10863 19.9227 18.8758C7.50703 30.643 0.461284 46.621 0.320312 63.3293H0.34185L0.320312 63.3622C0.320312 63.3622 34.5087 83.6641 70.9154 66.3254C70.9154 66.3254 36.7798 79.2701 15.488 52.7702C19.2613 31.6616 39.9641 18.8758 66.6058 18.8758C98.8515 18.8758 124.569 29.7383 125.952 60.115C128.223 61.0643 130.508 62.1357 132.805 63.3293Z" fill="#908DB9"/>
</g>
<defs>
<clipPath id="clip0_523_2643">
<rect width="132.571" height="151.567" fill="white" transform="translate(0.302734)"/>
</clipPath>
</defs>
</svg>
