<svg width="64" height="73" viewBox="0 0 64 73" fill="none" xmlns="http://www.w3.org/2000/svg">
<g clip-path="url(#clip0_601_2738)">
<path d="M63.3904 30.3075C63.3904 30.3075 47.2449 20.4034 30.0518 28.8602C30.0518 28.8602 44.2566 21.9489 54.3116 34.866C52.5215 45.1616 42.6354 50.4657 30.0518 50.4657C14.3153 50.4657 5.37856 45.8482 5.33584 30.3276H0.783732C0.750422 34.405 1.53551 38.4487 3.09372 42.2252C4.65193 46.0018 6.95242 49.4365 9.86251 52.3314C12.7726 55.2263 16.2347 57.524 20.0491 59.092C23.8636 60.66 27.9549 61.4673 32.0871 61.4673C36.2192 61.4673 40.3105 60.66 44.125 59.092C47.9394 57.524 51.4015 55.2263 54.3116 52.3314C57.2217 49.4365 59.5222 46.0018 61.0804 42.2252C62.6386 38.4487 63.4237 34.405 63.3904 30.3276H63.3802L63.3904 30.3075Z" fill="#342E37"/>
<path d="M50.3916 39.1828C51.643 36.535 50.4294 33.4112 47.6809 32.2056C44.9324 31.0001 41.6899 32.1692 40.4385 34.8171C39.1871 37.4649 40.4007 40.5886 43.1492 41.7942C45.8977 42.9997 49.1402 41.8306 50.3916 39.1828Z" fill="#342E37"/>
<path d="M23.7363 25.546C24.9877 22.8982 23.7741 19.7745 21.0256 18.5689C18.2771 17.3634 15.0346 18.5325 13.7832 21.1803C12.5318 23.8281 13.7454 26.9519 16.4939 28.1575C19.2424 29.363 22.4849 28.1939 23.7363 25.546Z" fill="#908DB9"/>
<path d="M63.359 30.1558H63.3997C63.3331 22.1996 60.0057 14.5911 54.1422 8.98773C48.2787 3.38438 40.3544 0.240234 32.0954 0.240234C23.8364 0.240234 15.912 3.38438 10.0485 8.98773C4.18505 14.5911 0.857592 22.1996 0.791016 30.1558H0.801187L0.791016 30.1715C0.791016 30.1715 16.937 39.839 34.1307 31.5825C34.1307 31.5825 18.0096 37.7466 7.95419 25.1278C9.73621 15.0762 19.5134 8.98773 32.0954 8.98773C47.3239 8.98773 59.4695 14.1603 60.1225 28.6252C61.1952 29.0773 62.2741 29.5875 63.359 30.1558Z" fill="#908DB9"/>
</g>
<defs>
<clipPath id="clip0_601_2738">
<rect width="62.6087" height="72.1739" fill="white" transform="translate(0.782715)"/>
</clipPath>
</defs>
</svg>
