<svg width="63" height="73" viewBox="0 0 63 73" fill="none" xmlns="http://www.w3.org/2000/svg">
<g clip-path="url(#clip0_523_2636)">
<path d="M62.8899 30.7431C62.8899 30.7431 46.7444 20.8389 29.5514 29.2958C29.5514 29.2958 43.7561 22.3844 53.8111 35.3016C52.021 45.5971 42.1349 50.9012 29.5514 50.9012C13.8148 50.9012 4.87807 46.2838 4.83535 30.7631H0.283244C0.249934 34.8406 1.03502 38.8842 2.59323 42.6608C4.15144 46.4373 6.45193 49.8721 9.36202 52.767C12.2721 55.6619 15.7342 57.9596 19.5487 59.5276C23.3631 61.0956 27.4544 61.9029 31.5866 61.9029C35.7188 61.9029 39.8101 61.0956 43.6245 59.5276C47.4389 57.9596 50.901 55.6619 53.8111 52.767C56.7212 49.8721 59.0217 46.4373 60.5799 42.6608C62.1381 38.8842 62.9232 34.8406 62.8899 30.7631H62.8797L62.8899 30.7431Z" fill="#342E37"/>
<path d="M49.8909 39.6183C51.1423 36.9705 49.9286 33.8467 47.1801 32.6412C44.4317 31.4356 41.1891 32.6048 39.9377 35.2526C38.6863 37.9004 39.9 41.0242 42.6484 42.2297C45.3969 43.4353 48.6395 42.2661 49.8909 39.6183Z" fill="#342E37"/>
<path d="M23.2356 25.9816C24.487 23.3338 23.2734 20.21 20.5249 19.0045C17.7764 17.7989 14.5339 18.9681 13.2825 21.6159C12.0311 24.2637 13.2447 27.3875 15.9932 28.593C18.7416 29.7986 21.9842 28.6294 23.2356 25.9816Z" fill="#908DB9"/>
<path d="M62.8581 30.5914H62.8987C62.8322 22.6352 59.5047 15.0266 53.6412 9.42328C47.7778 3.81993 39.8534 0.675781 31.5944 0.675781C23.3354 0.675781 15.411 3.81993 9.54755 9.42328C3.68408 15.0266 0.356615 22.6352 0.290039 30.5914H0.30021L0.290039 30.607C0.290039 30.607 16.436 40.2745 33.6297 32.0181C33.6297 32.0181 17.5086 38.1822 7.45322 25.5633C9.23524 15.5117 19.0124 9.42328 31.5944 9.42328C46.8229 9.42328 58.9685 14.5958 59.6215 29.0608C60.6943 29.5128 61.7731 30.023 62.8581 30.5914Z" fill="#908DB9"/>
</g>
<defs>
<clipPath id="clip0_523_2636">
<rect width="62.6087" height="72.1739" fill="white" transform="translate(0.282227 0.435547)"/>
</clipPath>
</defs>
</svg>
