<svg width="29" height="29" viewBox="0 0 29 29" fill="none" xmlns="http://www.w3.org/2000/svg">
<path d="M6.55103 26.2952L25.0259 15.9493C25.2973 15.7973 25.5233 15.5757 25.6807 15.3073C25.838 15.0389 25.9209 14.7334 25.9209 14.4223C25.9209 14.1112 25.838 13.8057 25.6807 13.5373C25.5233 13.269 25.2973 13.0473 25.0259 12.8953L6.55103 2.54934C6.24018 2.37523 5.88358 2.30016 5.52891 2.33416C5.17424 2.36815 4.8384 2.5096 4.56627 2.73958C4.29415 2.96957 4.09871 3.27714 4.00607 3.62118C3.91344 3.96522 3.92802 4.32934 4.04788 4.66487L7.53256 14.4222L4.04788 24.1798C3.97928 24.3709 3.9441 24.5723 3.94386 24.7753C3.94559 25.08 4.02673 25.3789 4.17926 25.6427C4.33179 25.9064 4.55044 26.1258 4.81365 26.2793C5.07685 26.4327 5.37552 26.5149 5.68017 26.5177C5.98483 26.5205 6.28495 26.4438 6.55092 26.2952L6.55103 26.2952ZM9.07847 15.2973L15.4618 15.2973C15.6939 15.2973 15.9164 15.2051 16.0805 15.041C16.2446 14.8769 16.3368 14.6544 16.3368 14.4223C16.3368 14.1903 16.2446 13.9677 16.0805 13.8036C15.9164 13.6395 15.6939 13.5473 15.4618 13.5473L9.07847 13.5473L5.69682 4.07676L24.171 14.4223L5.69627 24.7674L9.07847 15.2973Z" fill="white"/>
</svg>
