<svg width="70" height="71" viewBox="0 0 70 71" fill="none" xmlns="http://www.w3.org/2000/svg">
<g clip-path="url(#clip0_601_3942)">
<circle cx="35" cy="35.4355" r="35" fill="white"/>
<path fill-rule="evenodd" clip-rule="evenodd" d="M35.5 11.8202C22.1814 11.8202 11.3846 22.617 11.3846 35.9355C11.3846 49.2541 22.1814 60.0509 35.5 60.0509C48.8186 60.0509 59.6154 49.2541 59.6154 35.9355C59.6154 22.617 48.8186 11.8202 35.5 11.8202ZM7 35.9355C7 20.1954 19.7599 7.43555 35.5 7.43555C51.2401 7.43555 64 20.1954 64 35.9355C64 51.6757 51.2401 64.4355 35.5 64.4355C19.7599 64.4355 7 51.6757 7 35.9355Z" fill="#F5EACD"/>
<path fill-rule="evenodd" clip-rule="evenodd" d="M35.5 24.974C30.6569 24.974 26.7308 28.9001 26.7308 33.7432C26.7308 38.5864 30.6569 42.5125 35.5 42.5125C40.3431 42.5125 44.2692 38.5864 44.2692 33.7432C44.2692 28.9001 40.3431 24.974 35.5 24.974ZM22.3462 33.7432C22.3462 26.4786 28.2353 20.5894 35.5 20.5894C42.7647 20.5894 48.6538 26.4786 48.6538 33.7432C48.6538 41.0079 42.7647 46.8971 35.5 46.8971C28.2353 46.8971 22.3462 41.0079 22.3462 33.7432Z" fill="#F5EACD"/>
<path fill-rule="evenodd" clip-rule="evenodd" d="M35.5 46.8971C32.2612 46.8971 29.0852 47.7923 26.3249 49.4866C23.5646 51.1809 21.3273 53.6065 19.8612 56.4944C19.313 57.574 17.9935 58.0049 16.9139 57.4568C15.8343 56.9087 15.4034 55.5891 15.9515 54.5095C17.7843 50.8996 20.5808 47.8677 24.0312 45.7498C27.4816 43.6319 31.4515 42.5125 35.5 42.5125C39.5485 42.5125 43.5176 43.6319 46.968 45.7498C50.4184 47.8677 53.215 50.8996 55.0477 54.5095C55.5958 55.5891 55.1649 56.9087 54.0853 57.4568C53.0057 58.0049 51.6862 57.574 51.1381 56.4944C49.6719 53.6065 47.4346 51.1809 44.6743 49.4866C41.914 47.7923 38.7388 46.8971 35.5 46.8971Z" fill="#F5EACD"/>
</g>
<defs>
<clipPath id="clip0_601_3942">
<rect width="70" height="70" fill="white" transform="translate(0 0.435547)"/>
</clipPath>
</defs>
</svg>
