<svg width="71" height="71" viewBox="0 0 71 71" fill="none" xmlns="http://www.w3.org/2000/svg">
<g clip-path="url(#clip0_601_112)">
<circle cx="35.0439" cy="35.4355" r="35" fill="white"/>
<path fill-rule="evenodd" clip-rule="evenodd" d="M35.5439 11.8202C22.2254 11.8202 11.4286 22.617 11.4286 35.9355C11.4286 49.2541 22.2254 60.0509 35.5439 60.0509C48.8625 60.0509 59.6593 49.2541 59.6593 35.9355C59.6593 22.617 48.8625 11.8202 35.5439 11.8202ZM7.04395 35.9355C7.04395 20.1954 19.8038 7.43555 35.5439 7.43555C51.2841 7.43555 64.0439 20.1954 64.0439 35.9355C64.0439 51.6757 51.2841 64.4355 35.5439 64.4355C19.8038 64.4355 7.04395 51.6757 7.04395 35.9355Z" fill="#F5EACD"/>
<path fill-rule="evenodd" clip-rule="evenodd" d="M35.5439 24.974C30.7008 24.974 26.7747 28.9001 26.7747 33.7432C26.7747 38.5864 30.7008 42.5125 35.5439 42.5125C40.3871 42.5125 44.3132 38.5864 44.3132 33.7432C44.3132 28.9001 40.3871 24.974 35.5439 24.974ZM22.3901 33.7432C22.3901 26.4786 28.2793 20.5894 35.5439 20.5894C42.8086 20.5894 48.6978 26.4786 48.6978 33.7432C48.6978 41.0079 42.8086 46.8971 35.5439 46.8971C28.2793 46.8971 22.3901 41.0079 22.3901 33.7432Z" fill="#F5EACD"/>
<path fill-rule="evenodd" clip-rule="evenodd" d="M35.5439 46.8971C32.3051 46.8971 29.1292 47.7923 26.3689 49.4866C23.6085 51.1809 21.3713 53.6065 19.9051 56.4944C19.357 57.574 18.0375 58.0049 16.9578 57.4568C15.8782 56.9087 15.4474 55.5891 15.9955 54.5095C17.8282 50.8996 20.6248 47.8677 24.0752 45.7498C27.5256 43.6319 31.4954 42.5125 35.5439 42.5125C39.5925 42.5125 43.5615 43.6319 47.0119 45.7498C50.4623 47.8677 53.2589 50.8996 55.0916 54.5095C55.6397 55.5891 55.2089 56.9087 54.1293 57.4568C53.0497 58.0049 51.7301 57.574 51.182 56.4944C49.7158 53.6065 47.4786 51.1809 44.7183 49.4866C41.9579 47.7923 38.7828 46.8971 35.5439 46.8971Z" fill="#F5EACD"/>
</g>
<defs>
<clipPath id="clip0_601_112">
<rect width="70" height="70" fill="white" transform="translate(0.0439453 0.435547)"/>
</clipPath>
</defs>
</svg>
