<svg width="71" height="71" viewBox="0 0 71 71" fill="none" xmlns="http://www.w3.org/2000/svg">
<g clip-path="url(#clip0_601_1365)">
<circle cx="35.0869" cy="35.4355" r="35" fill="white"/>
<path fill-rule="evenodd" clip-rule="evenodd" d="M35.5869 11.8202C22.2684 11.8202 11.4715 22.617 11.4715 35.9355C11.4715 49.2541 22.2684 60.0509 35.5869 60.0509C48.9055 60.0509 59.7023 49.2541 59.7023 35.9355C59.7023 22.617 48.9055 11.8202 35.5869 11.8202ZM7.08691 35.9355C7.08691 20.1954 19.8468 7.43555 35.5869 7.43555C51.327 7.43555 64.0869 20.1954 64.0869 35.9355C64.0869 51.6757 51.327 64.4355 35.5869 64.4355C19.8468 64.4355 7.08691 51.6757 7.08691 35.9355Z" fill="#F5EACD"/>
<path fill-rule="evenodd" clip-rule="evenodd" d="M35.5869 24.974C30.7438 24.974 26.8177 28.9001 26.8177 33.7432C26.8177 38.5864 30.7438 42.5125 35.5869 42.5125C40.43 42.5125 44.3561 38.5864 44.3561 33.7432C44.3561 28.9001 40.43 24.974 35.5869 24.974ZM22.4331 33.7432C22.4331 26.4786 28.3222 20.5894 35.5869 20.5894C42.8516 20.5894 48.7408 26.4786 48.7408 33.7432C48.7408 41.0079 42.8516 46.8971 35.5869 46.8971C28.3222 46.8971 22.4331 41.0079 22.4331 33.7432Z" fill="#F5EACD"/>
<path fill-rule="evenodd" clip-rule="evenodd" d="M35.5869 46.8971C32.3481 46.8971 29.1721 47.7923 26.4118 49.4866C23.6515 51.1809 21.4143 53.6065 19.9481 56.4944C19.4 57.574 18.0804 58.0049 17.0008 57.4568C15.9212 56.9087 15.4903 55.5891 16.0385 54.5095C17.8712 50.8996 20.6677 47.8677 24.1181 45.7498C27.5685 43.6319 31.5384 42.5125 35.5869 42.5125C39.6354 42.5125 43.6045 43.6319 47.0549 45.7498C50.5053 47.8677 53.3019 50.8996 55.1346 54.5095C55.6827 55.5891 55.2518 56.9087 54.1722 57.4568C53.0926 58.0049 51.7731 57.574 51.225 56.4944C49.7588 53.6065 47.5215 51.1809 44.7612 49.4866C42.0009 47.7923 38.8257 46.8971 35.5869 46.8971Z" fill="#F5EACD"/>
</g>
<defs>
<clipPath id="clip0_601_1365">
<rect width="70" height="70" fill="white" transform="translate(0.0869141 0.435547)"/>
</clipPath>
</defs>
</svg>
