<svg width="71" height="71" viewBox="0 0 71 71" fill="none" xmlns="http://www.w3.org/2000/svg">
<g clip-path="url(#clip0_601_1372)">
<circle cx="35.1309" cy="35.4355" r="35" fill="white"/>
<path fill-rule="evenodd" clip-rule="evenodd" d="M35.6309 11.8202C22.3123 11.8202 11.5155 22.617 11.5155 35.9355C11.5155 49.2541 22.3123 60.0509 35.6309 60.0509C48.9494 60.0509 59.7462 49.2541 59.7462 35.9355C59.7462 22.617 48.9494 11.8202 35.6309 11.8202ZM7.13086 35.9355C7.13086 20.1954 19.8907 7.43555 35.6309 7.43555C51.371 7.43555 64.1309 20.1954 64.1309 35.9355C64.1309 51.6757 51.371 64.4355 35.6309 64.4355C19.8907 64.4355 7.13086 51.6757 7.13086 35.9355Z" fill="#F5EACD"/>
<path fill-rule="evenodd" clip-rule="evenodd" d="M35.6309 24.974C30.7877 24.974 26.8616 28.9001 26.8616 33.7432C26.8616 38.5864 30.7877 42.5125 35.6309 42.5125C40.474 42.5125 44.4001 38.5864 44.4001 33.7432C44.4001 28.9001 40.474 24.974 35.6309 24.974ZM22.477 33.7432C22.477 26.4786 28.3662 20.5894 35.6309 20.5894C42.8955 20.5894 48.7847 26.4786 48.7847 33.7432C48.7847 41.0079 42.8955 46.8971 35.6309 46.8971C28.3662 46.8971 22.477 41.0079 22.477 33.7432Z" fill="#F5EACD"/>
<path fill-rule="evenodd" clip-rule="evenodd" d="M35.6309 46.8971C32.392 46.8971 29.2161 47.7923 26.4558 49.4866C23.6955 51.1809 21.4582 53.6065 19.992 56.4944C19.4439 57.574 18.1244 58.0049 17.0448 57.4568C15.9652 56.9087 15.5343 55.5891 16.0824 54.5095C17.9151 50.8996 20.7117 47.8677 24.1621 45.7498C27.6125 43.6319 31.5823 42.5125 35.6309 42.5125C39.6794 42.5125 43.6485 43.6319 47.0989 45.7498C50.5492 47.8677 53.3458 50.8996 55.1785 54.5095C55.7267 55.5891 55.2958 56.9087 54.2162 57.4568C53.1366 58.0049 51.817 57.574 51.2689 56.4944C49.8027 53.6065 47.5655 51.1809 44.8052 49.4866C42.0449 47.7923 38.8697 46.8971 35.6309 46.8971Z" fill="#F5EACD"/>
</g>
<defs>
<clipPath id="clip0_601_1372">
<rect width="70" height="70" fill="white" transform="translate(0.130859 0.435547)"/>
</clipPath>
</defs>
</svg>
