<svg width="144" height="144" viewBox="0 0 144 144" fill="none" xmlns="http://www.w3.org/2000/svg">
<g clip-path="url(#clip0_534_2825)">
<circle cx="72" cy="71.9355" r="71.5" fill="white"/>
<path fill-rule="evenodd" clip-rule="evenodd" d="M73.0212 23.6935C45.8133 23.6935 23.7569 45.7498 23.7569 72.9578C23.7569 100.166 45.8133 122.222 73.0212 122.222C100.229 122.222 122.286 100.166 122.286 72.9578C122.286 45.7498 100.229 23.6935 73.0212 23.6935ZM14.7998 72.9578C14.7998 40.8029 40.8664 14.7363 73.0212 14.7363C105.176 14.7363 131.243 40.8029 131.243 72.9578C131.243 105.113 105.176 131.179 73.0212 131.179C40.8664 131.179 14.7998 105.113 14.7998 72.9578Z" fill="#F5EACD"/>
<path fill-rule="evenodd" clip-rule="evenodd" d="M73.0212 50.5649C63.1274 50.5649 55.1069 58.5854 55.1069 68.4792C55.1069 78.373 63.1274 86.3935 73.0212 86.3935C82.915 86.3935 90.9355 78.373 90.9355 68.4792C90.9355 58.5854 82.915 50.5649 73.0212 50.5649ZM46.1498 68.4792C46.1498 53.6385 58.1806 41.6078 73.0212 41.6078C87.8619 41.6078 99.8927 53.6385 99.8927 68.4792C99.8927 83.3199 87.8619 95.3506 73.0212 95.3506C58.1806 95.3506 46.1498 83.3199 46.1498 68.4792Z" fill="#F5EACD"/>
<path fill-rule="evenodd" clip-rule="evenodd" d="M73.0212 95.3506C66.4048 95.3506 59.9168 97.1795 54.2778 100.641C48.6389 104.102 44.0685 109.057 41.0733 114.957C39.9536 117.162 37.258 118.042 35.0525 116.923C32.847 115.803 31.9668 113.107 33.0865 110.902C36.8305 103.527 42.5435 97.3333 49.5922 93.0069C56.6408 88.6804 64.7507 86.3935 73.0212 86.3935C81.2918 86.3935 89.4 88.6804 96.4487 93.0069C103.497 97.3333 109.21 103.527 112.954 110.902C114.074 113.107 113.194 115.803 110.988 116.923C108.783 118.042 106.087 117.162 104.968 114.957C101.972 109.057 97.402 104.102 91.7631 100.641C86.1241 97.1795 79.6377 95.3506 73.0212 95.3506Z" fill="#F5EACD"/>
</g>
<defs>
<clipPath id="clip0_534_2825">
<rect width="143" height="143" fill="white" transform="translate(0.5 0.435547)"/>
</clipPath>
</defs>
</svg>
