<svg width="21" height="23" viewBox="0 0 21 23" fill="none" xmlns="http://www.w3.org/2000/svg">
<path d="M16.3805 11.4346C16.3805 11.0296 16.679 10.7013 17.0472 10.7013C17.4154 10.7013 17.7139 11.0296 17.7139 11.4346C17.7139 11.8396 17.4154 12.168 17.0472 12.168C16.679 12.168 16.3805 11.8396 16.3805 11.4346Z" stroke="#B8C0CC" stroke-width="1.5"/>
<path d="M9.71387 11.4346C9.71387 11.0296 10.0123 10.7013 10.3805 10.7013C10.7487 10.7013 11.0472 11.0296 11.0472 11.4346C11.0472 11.8396 10.7487 12.168 10.3805 12.168C10.0123 12.168 9.71387 11.8396 9.71387 11.4346Z" stroke="#B8C0CC" stroke-width="1.5"/>
<path d="M3.0472 11.4346C3.0472 11.0296 3.34568 10.7013 3.71387 10.7013C4.08206 10.7013 4.38053 11.0296 4.38053 11.4346C4.38053 11.8396 4.08206 12.168 3.71387 12.168C3.34568 12.168 3.0472 11.8396 3.0472 11.4346Z" stroke="#B8C0CC" stroke-width="1.5"/>
</svg>
