<svg width="28" height="23" viewBox="0 0 28 23" fill="none" xmlns="http://www.w3.org/2000/svg">
<path d="M27.0921 3.04515C26.1286 3.48614 25.0937 3.7841 24.0057 3.91878C25.1283 3.22487 25.9682 2.13274 26.3686 0.846165C25.3139 1.49333 24.1595 1.94887 22.9557 2.19297C22.1462 1.3001 21.074 0.708298 19.9055 0.509433C18.737 0.310569 17.5376 0.515771 16.4936 1.09318C15.4496 1.67059 14.6193 2.58791 14.1317 3.7027C13.6441 4.8175 13.5264 6.06741 13.7969 7.25838C11.6597 7.14753 9.56898 6.57371 7.66037 5.57416C5.75177 4.57462 4.06794 3.17168 2.71819 1.4564C2.25667 2.27878 1.9913 3.23227 1.9913 4.24774C1.99079 5.16189 2.20871 6.06204 2.62575 6.86832C3.04278 7.6746 3.64603 8.36209 4.38196 8.86977C3.52847 8.84172 2.69381 8.60349 1.94746 8.17492V8.24643C1.94737 9.52856 2.3767 10.7712 3.16261 11.7636C3.94852 12.756 5.04259 13.4369 6.25918 13.6909C5.46743 13.9122 4.63734 13.9448 3.8316 13.7862C4.17485 14.8894 4.84347 15.8541 5.74386 16.5453C6.64425 17.2364 7.73132 17.6194 8.85291 17.6407C6.94896 19.1846 4.59759 20.0221 2.17706 20.0184C1.74829 20.0186 1.31988 19.9927 0.894043 19.941C3.35102 21.5728 6.21111 22.4389 9.13212 22.4355C19.0201 22.4355 24.4256 13.9757 24.4256 6.63861C24.4256 6.40024 24.4199 6.15948 24.4095 5.92111C25.4609 5.13564 26.3685 4.16299 27.0898 3.04872L27.0921 3.04515V3.04515Z" fill="#484848"/>
</svg>
