<svg width="31" height="31" viewBox="0 0 31 31" fill="none" xmlns="http://www.w3.org/2000/svg">
<path d="M16.9367 15.4348L22.3117 10.0723C22.5471 9.83692 22.6794 9.51768 22.6794 9.1848C22.6794 8.85193 22.5471 8.53268 22.3117 8.2973C22.0764 8.06192 21.7571 7.92969 21.4242 7.92969C21.0914 7.92969 20.7721 8.06192 20.5367 8.2973L15.1742 13.6723L9.81174 8.2973C9.57636 8.06192 9.25712 7.92969 8.92424 7.92969C8.59136 7.92969 8.27212 8.06192 8.03674 8.2973C7.80136 8.53268 7.66913 8.85193 7.66913 9.1848C7.66913 9.51768 7.80136 9.83692 8.03674 10.0723L13.4117 15.4348L8.03674 20.7973C7.91958 20.9135 7.82659 21.0518 7.76313 21.2041C7.69967 21.3564 7.66699 21.5198 7.66699 21.6848C7.66699 21.8498 7.69967 22.0132 7.76313 22.1655C7.82659 22.3178 7.91958 22.4561 8.03674 22.5723C8.15294 22.6895 8.2912 22.7825 8.44352 22.8459C8.59584 22.9094 8.75923 22.942 8.92424 22.942C9.08925 22.942 9.25264 22.9094 9.40496 22.8459C9.55729 22.7825 9.69554 22.6895 9.81174 22.5723L15.1742 17.1973L20.5367 22.5723C20.6529 22.6895 20.7912 22.7825 20.9435 22.8459C21.0958 22.9094 21.2592 22.942 21.4242 22.942C21.5893 22.942 21.7526 22.9094 21.905 22.8459C22.0573 22.7825 22.1955 22.6895 22.3117 22.5723C22.4289 22.4561 22.5219 22.3178 22.5854 22.1655C22.6488 22.0132 22.6815 21.8498 22.6815 21.6848C22.6815 21.5198 22.6488 21.3564 22.5854 21.2041C22.5219 21.0518 22.4289 20.9135 22.3117 20.7973L16.9367 15.4348Z" fill="#484848"/>
</svg>
