<svg width="17" height="20" viewBox="0 0 17 20" fill="none" xmlns="http://www.w3.org/2000/svg">
<path d="M15.9955 7.43555H4.2115V4.43555C4.2115 3.33255 4.96652 2.43555 5.89493 2.43555C6.82334 2.43555 7.57835 3.33255 7.57835 4.43555H9.26178C9.26178 2.22955 7.75175 0.435547 5.89493 0.435547C4.03811 0.435547 2.52807 2.22955 2.52807 4.43555V7.43555H0.844643C0.621407 7.43555 0.407314 7.5409 0.249462 7.72844C0.09161 7.91598 0.00292969 8.17033 0.00292969 8.43555V10.4355C0.00292969 13.0415 1.41196 15.2585 3.36978 16.0855V19.4355H5.05321V16.4355H11.7869V19.4355H13.4703V16.0855C15.4282 15.2585 16.8372 13.0415 16.8372 10.4355V8.43555C16.8372 8.17033 16.7485 7.91598 16.5907 7.72844C16.4328 7.5409 16.2187 7.43555 15.9955 7.43555V7.43555ZM15.1538 10.4355C15.1538 12.6415 13.6437 14.4355 11.7869 14.4355H5.05321C3.19639 14.4355 1.68636 12.6415 1.68636 10.4355V9.43555H15.1538V10.4355Z" fill="#484848"/>
</svg>
