<svg width="38" height="38" viewBox="0 0 38 38" fill="none" xmlns="http://www.w3.org/2000/svg">
<path d="M19.0003 0.882812C9.06183 0.882812 0.666992 9.27765 0.666992 19.2161C0.666992 29.1546 9.06183 37.5495 19.0003 37.5495C28.9388 37.5495 37.3337 29.1546 37.3337 19.2161C37.3337 9.27765 28.9388 0.882812 19.0003 0.882812ZM19.0003 10.0495C22.1665 10.0495 24.5003 12.3815 24.5003 15.5495C24.5003 18.7175 22.1665 21.0495 19.0003 21.0495C15.836 21.0495 13.5003 18.7175 13.5003 15.5495C13.5003 12.3815 15.836 10.0495 19.0003 10.0495ZM9.63933 27.9648C11.2838 25.5448 14.0265 23.9315 17.167 23.9315H20.8337C23.976 23.9315 26.7168 25.5448 28.3613 27.9648C26.0183 30.4728 22.6945 32.0495 19.0003 32.0495C15.3062 32.0495 11.9823 30.4728 9.63933 27.9648Z" fill="#908DB9"/>
</svg>
