<svg width="20" height="20" viewBox="0 0 20 20" fill="none" xmlns="http://www.w3.org/2000/svg">
<path d="M18.2503 7.43555H4.83366V4.43555C4.83366 3.33255 5.69328 2.43555 6.75033 2.43555C7.80737 2.43555 8.66699 3.33255 8.66699 4.43555H10.5837C10.5837 2.22955 8.86441 0.435547 6.75033 0.435547C4.63624 0.435547 2.91699 2.22955 2.91699 4.43555V7.43555H1.00033C0.74616 7.43555 0.502404 7.5409 0.322681 7.72844C0.142959 7.91598 0.0419922 8.17033 0.0419922 8.43555V10.4355C0.0419922 13.0415 1.64624 15.2585 3.87533 16.0855V19.4355H5.79199V16.4355H13.4587V19.4355H15.3753V16.0855C17.6044 15.2585 19.2087 13.0415 19.2087 10.4355V8.43555C19.2087 8.17033 19.1077 7.91598 18.928 7.72844C18.7482 7.5409 18.5045 7.43555 18.2503 7.43555V7.43555ZM17.292 10.4355C17.292 12.6415 15.5727 14.4355 13.4587 14.4355H5.79199C3.67791 14.4355 1.95866 12.6415 1.95866 10.4355V9.43555H17.292V10.4355Z" fill="#484848"/>
</svg>
