<svg width="160" height="98" viewBox="0 0 160 98" fill="none" xmlns="http://www.w3.org/2000/svg">
<path d="M159.997 13.3051C159.997 13.3051 118.737 -13.5912 74.7989 9.3748C74.7989 9.3748 111.1 -9.39414 136.796 25.6844C132.221 53.6437 106.957 68.0479 74.7989 68.0479C34.5831 68.0479 11.7449 55.5085 11.6358 13.3596H0.00259948C-0.0825253 24.4326 1.92381 35.4137 5.9059 45.6696C9.88798 55.9254 15.767 65.2531 23.2039 73.1146C30.6408 80.9762 39.4884 87.216 49.2364 91.4741C58.9845 95.7323 69.44 97.9247 80 97.9247C90.56 97.9247 101.016 95.7323 110.764 91.4741C120.512 87.216 129.359 80.9762 136.796 73.1146C144.233 65.2531 150.112 55.9254 154.094 45.6696C158.076 35.4137 160.083 24.4326 159.997 13.3596H159.971L159.997 13.3051Z" fill="#342E37"/>
</svg>
