<svg width="133" height="74" viewBox="0 0 133 74" fill="none" xmlns="http://www.w3.org/2000/svg">
<path d="M132.804 63.3293H132.89C132.749 46.621 125.704 30.643 113.288 18.8758C100.872 7.10863 84.0928 0.505859 66.6048 0.505859C49.1168 0.505859 32.3373 7.10863 19.9217 18.8758C7.50605 30.643 0.460308 46.621 0.319336 63.3293H0.340873L0.319336 63.3622C0.319336 63.3622 34.5077 83.6641 70.9145 66.3254C70.9145 66.3254 36.7788 79.2701 15.487 52.7702C19.2604 31.6616 39.9631 18.8758 66.6048 18.8758C98.8505 18.8758 124.568 29.7383 125.951 60.115C128.222 61.0643 130.507 62.1357 132.804 63.3293Z" fill="#908DB9"/>
</svg>
