<svg width="160" height="95" viewBox="0 0 160 95" fill="none" xmlns="http://www.w3.org/2000/svg">
<path d="M159.918 81.8949H160.022C159.851 60.2885 151.348 39.6264 136.363 24.4095C121.379 9.19273 101.128 0.654297 80.0215 0.654297C58.9152 0.654297 38.664 9.19273 23.6796 24.4095C8.69514 39.6264 0.191623 60.2885 0.0214844 81.8949H0.0474774L0.0214844 81.9375C0.0214844 81.9375 41.2835 108.191 85.2228 85.7694C85.2228 85.7694 44.0245 102.509 18.3274 68.2404C22.8814 40.9437 47.8676 24.4095 80.0215 24.4095C118.939 24.4095 149.978 38.4564 151.646 77.7384C154.388 78.966 157.145 80.3515 159.918 81.8949Z" fill="#908DB9"/>
</svg>
