<svg width="133" height="77" viewBox="0 0 133 77" fill="none" xmlns="http://www.w3.org/2000/svg">
<path d="M132.871 10.6465C132.871 10.6465 98.6833 -10.1524 62.2778 7.60717C62.2778 7.60717 92.3556 -6.90685 113.647 20.2194C109.856 41.8403 88.9229 52.9791 62.2778 52.9791C28.9563 52.9791 10.0332 43.2823 9.94279 10.6886H0.303912C0.23338 19.2514 1.89577 27.7431 5.1952 35.6739C8.49463 43.6048 13.3658 50.8179 19.5278 56.8972C25.6898 62.9765 33.0206 67.8017 41.0975 71.0946C49.1744 74.3875 57.8375 76.0828 66.5872 76.0828C75.3369 76.0828 84.0001 74.3875 92.077 71.0946C100.154 67.8017 107.485 62.9765 113.647 56.8972C119.809 50.8179 124.68 43.6048 127.979 35.6739C131.279 27.7431 132.941 19.2514 132.871 10.6886H132.849L132.871 10.6465Z" fill="#342E37"/>
</svg>
